<svg xmlns="http://www.w3.org/2000/svg" width="512" height="512" viewBox="0 0 512 512">
  <defs>
    <linearGradient id="bg" x1="0" y1="0" x2="1" y2="1">
      <stop offset="0" stop-color="#DCF1ED"/>
      <stop offset="1" stop-color="#EAF6F8"/>
    </linearGradient>
    <linearGradient id="body" x1="0" y1="0" x2="0" y2="1">
      <stop offset="0" stop-color="#5BC4B0"/>
      <stop offset="1" stop-color="#2E8C7D"/>
    </linearGradient>
  </defs>
  <rect width="512" height="512" rx="112" fill="url(#bg)"/>
  <path fill="url(#body)" d="M150 380 Q70 380 70 300 Q70 240 132 228 Q132 138 228 138 Q280 84 352 118 Q440 118 452 210 Q510 232 498 308 Q498 380 414 380 Z"/>
  <ellipse cx="262" cy="312" rx="120" ry="78" fill="#fff" opacity="0.45"/>
  <circle cx="214" cy="282" r="19" fill="#26352F"/>
  <circle cx="312" cy="282" r="19" fill="#26352F"/>
  <circle cx="172" cy="318" r="24" fill="#F5A35B" opacity="0.6"/>
  <circle cx="354" cy="318" r="24" fill="#F5A35B" opacity="0.6"/>
  <path d="M226 332 q37 30 74 0" stroke="#26352F" stroke-width="13" fill="none" stroke-linecap="round"/>
</svg>
